<svg width="512" height="158" viewBox="0 0 512 158" fill="none" xmlns="http://www.w3.org/2000/svg">
<g clip-path="url(#clip0)">
<path d="M60.1821 56.287L69.9701 61.181C63.4071 72.082 51.8381 79.313 37.8241 79.313C15.9091 79.313 0.00213623 61.626 0.00213623 39.712C0.00213623 17.687 15.9091 0 37.8231 0C51.8381 0 63.4071 7.23 69.9691 18.243L60.1811 23.026C55.6201 15.574 47.7221 10.679 37.8231 10.679C21.6921 10.679 10.9031 23.582 10.9031 39.712C10.9031 55.73 21.6921 68.746 37.8231 68.746C47.7231 68.746 55.6211 63.851 60.1821 56.287V56.287ZM38.0451 33.038C41.8271 33.038 44.8311 36.152 44.8311 39.823C44.8311 43.495 41.8271 46.497 38.0451 46.497C34.3741 46.497 31.3711 43.495 31.3711 39.823C31.3711 36.152 34.3741 33.038 38.0451 33.038Z" fill="#54256C"/>
<path d="M137.272 78.534H125.592L104.122 16.575L82.6511 78.534H70.9721L98.8941 0.667H109.242L137.272 78.534Z" fill="#54256C"/>
<path d="M340.5 78.534H328.82L307.35 16.575L285.88 78.534H274.2L302.12 0.666992H312.47L340.5 78.534Z" fill="#54256C"/>
<path d="M457.74 78.534H446.06L424.6 16.575L403.13 78.534H391.45L419.37 0.666992H429.71L457.74 78.534Z" fill="#54256C"/>
<path d="M511.249 67.856V78.535H464.419V0.667999H475.099V67.856H511.249Z" fill="#54256C"/>
<path d="M219.128 101.939H208.581V156.335H219.128V101.939Z" fill="#54256C"/>
<path d="M267.53 77.8965V0.667996H256.852V52.3937L209.465 0H208.574V90.6234H208.588V91.0334H219.136V90.6234H219.143V27.3648L265.156 77.8055C265.023 77.8045 264.894 77.7965 264.761 77.7965C242.403 77.7965 226.942 95.1494 226.942 117.508C226.942 139.867 242.403 157.22 264.761 157.22C287.12 157.22 302.471 139.867 302.471 117.508C302.471 96.0864 288.374 79.2705 267.53 77.8965V77.8965ZM264.761 142.425C250.524 142.425 242.071 131.746 242.071 117.508C242.071 103.269 250.524 92.5914 264.761 92.5914C278.888 92.5914 287.343 103.269 287.343 117.508C287.343 131.746 278.888 142.425 264.761 142.425Z" fill="#54256C"/>
<path d="M264.76 109.939C260.533 109.939 257.197 113.387 257.197 117.503C257.197 121.618 260.534 125.066 264.76 125.066C268.876 125.066 272.214 121.618 272.214 117.503C272.214 113.388 268.876 109.939 264.76 109.939Z" fill="#54256C"/>
<path d="M184.992 127.18C194.668 123.175 199.785 114.276 199.785 103.821C199.785 89.583 190.109 78.237 172.756 78.237H154.625V50.835H172.979L188.664 78.533H200.789L183.992 48.721C193.224 44.828 198.564 36.04 198.564 25.806C198.564 11.902 188.886 0.666 173.09 0.666H143.946V11.234H173.09C182.434 11.234 187.661 18.131 187.661 25.806C187.661 33.37 182.433 40.267 173.09 40.267H143.946V101.941H154.624V92.473H172.422C179.763 92.473 184.435 97.146 184.435 103.82C184.435 110.493 179.763 115.277 172.422 115.277H143.946V156.1H158.739V129.404H169.53L184.991 156.1H201.676L184.992 127.18V127.18Z" fill="#54256C"/>
<path d="M360.76 48.271L344.12 2.38699L343.5 0.666992H332.16L352.85 57.065V57.044L355.22 63.494L360.76 48.271Z" fill="#54256C"/>
<path d="M399.78 0.666992H389.45H388.44L360.41 77.645L360.74 78.534H371.09L399.79 0.666992H399.78Z" fill="#54256C"/>
<path d="M331.561 79C334.479 79 337.253 79.4315 339.883 80.2946C342.549 81.1217 344.891 82.3983 346.908 84.1245C348.926 85.8147 350.529 87.9544 351.718 90.5436C352.907 93.0968 353.501 96.0996 353.501 99.5519C353.501 102.429 353.051 105.108 352.15 107.589C351.286 110.035 350.097 112.39 348.584 114.656C347.071 116.921 345.305 119.133 343.288 121.29C341.306 123.412 339.217 125.588 337.019 127.817L313.079 152.199C314.232 151.911 315.421 151.696 316.646 151.552C317.907 151.408 319.168 151.336 320.429 151.336H353.447C354.024 151.336 354.474 151.516 354.798 151.876C355.159 152.199 355.339 152.631 355.339 153.17V156.191H306V154.357C306 153.961 306.09 153.566 306.27 153.17C306.486 152.739 306.739 152.379 307.027 152.091L333.128 125.714C335.29 123.52 337.289 121.398 339.127 119.349C340.964 117.299 342.549 115.231 343.882 113.145C345.251 111.059 346.314 108.92 347.071 106.726C347.863 104.533 348.259 102.195 348.259 99.7137C348.259 96.9087 347.791 94.4813 346.854 92.4315C345.918 90.3458 344.657 88.6376 343.072 87.3071C341.522 85.9765 339.721 84.9876 337.668 84.3403C335.65 83.693 333.525 83.3693 331.291 83.3693C328.877 83.3693 326.643 83.7469 324.59 84.5021C322.572 85.2213 320.771 86.2462 319.186 87.5768C317.637 88.8714 316.34 90.4357 315.295 92.2697C314.286 94.0678 313.584 96.0456 313.187 98.2033C312.827 99.462 312.107 100.091 311.026 100.091C310.954 100.091 310.864 100.091 310.756 100.091C310.647 100.055 310.557 100.037 310.485 100.037L307.891 99.6058C308.324 96.3333 309.206 93.4205 310.539 90.8672C311.908 88.314 313.62 86.1563 315.673 84.3942C317.727 82.6321 320.105 81.3015 322.807 80.4025C325.509 79.4675 328.427 79 331.561 79Z" fill="#54256C"/>
<path d="M409.658 118C409.658 124.689 408.937 130.479 407.496 135.369C406.055 140.26 404.091 144.306 401.606 147.506C399.12 150.707 396.202 153.098 392.851 154.681C389.537 156.227 385.988 157 382.205 157C378.422 157 374.874 156.227 371.559 154.681C368.245 153.098 365.345 150.707 362.859 147.506C360.373 144.306 358.409 140.26 356.968 135.369C355.563 130.479 354.861 124.689 354.861 118C354.861 111.311 355.563 105.521 356.968 100.631C358.409 95.74 360.373 91.6943 362.859 88.4938C365.345 85.2932 368.245 82.9198 371.559 81.3734C374.874 79.7911 378.422 79 382.205 79C385.988 79 389.537 79.7911 392.851 81.3734C396.202 82.9198 399.12 85.2932 401.606 88.4938C404.091 91.6943 406.055 95.74 407.496 100.631C408.937 105.521 409.658 111.311 409.658 118ZM404.254 118C404.254 111.815 403.659 106.528 402.47 102.141C401.281 97.7538 399.678 94.1757 397.661 91.4066C395.679 88.6017 393.337 86.5519 390.635 85.2573C387.969 83.9627 385.159 83.3154 382.205 83.3154C379.251 83.3154 376.441 83.9627 373.775 85.2573C371.109 86.5519 368.767 88.6017 366.75 91.4066C364.732 94.1757 363.129 97.7538 361.94 102.141C360.751 106.528 360.157 111.815 360.157 118C360.157 124.221 360.751 129.526 361.94 133.913C363.129 138.264 364.732 141.842 366.75 144.647C368.767 147.416 371.109 149.448 373.775 150.743C376.441 152.001 379.251 152.631 382.205 152.631C385.159 152.631 387.969 152.001 390.635 150.743C393.337 149.448 395.679 147.416 397.661 144.647C399.678 141.842 401.281 138.264 402.47 133.913C403.659 129.526 404.254 124.221 404.254 118Z" fill="#54256C"/>
<path d="M435.335 79C438.253 79 441.027 79.4315 443.657 80.2946C446.323 81.1217 448.665 82.3983 450.683 84.1245C452.7 85.8147 454.303 87.9544 455.492 90.5436C456.681 93.0968 457.276 96.0996 457.276 99.5519C457.276 102.429 456.825 105.108 455.925 107.589C455.06 110.035 453.871 112.39 452.358 114.656C450.845 116.921 449.079 119.133 447.062 121.29C445.08 123.412 442.991 125.588 440.793 127.817L416.853 152.199C418.006 151.911 419.195 151.696 420.42 151.552C421.681 151.408 422.942 151.336 424.203 151.336H457.222C457.798 151.336 458.248 151.516 458.573 151.876C458.933 152.199 459.113 152.631 459.113 153.17V156.191H409.774V154.357C409.774 153.961 409.864 153.566 410.044 153.17C410.261 152.739 410.513 152.379 410.801 152.091L436.902 125.714C439.064 123.52 441.063 121.398 442.901 119.349C444.738 117.299 446.323 115.231 447.656 113.145C449.025 111.059 450.088 108.92 450.845 106.726C451.637 104.533 452.034 102.195 452.034 99.7137C452.034 96.9087 451.565 94.4813 450.629 92.4315C449.692 90.3458 448.431 88.6376 446.846 87.3071C445.297 85.9765 443.495 84.9876 441.442 84.3403C439.424 83.693 437.299 83.3693 435.065 83.3693C432.651 83.3693 430.418 83.7469 428.364 84.5021C426.347 85.2213 424.545 86.2462 422.96 87.5768C421.411 88.8714 420.114 90.4357 419.069 92.2697C418.06 94.0678 417.358 96.0456 416.962 98.2033C416.601 99.462 415.881 100.091 414.8 100.091C414.728 100.091 414.638 100.091 414.53 100.091C414.422 100.055 414.332 100.037 414.26 100.037L411.666 99.6058C412.098 96.3333 412.981 93.4205 414.314 90.8672C415.683 88.314 417.394 86.1563 419.447 84.3942C421.501 82.6321 423.879 81.3015 426.581 80.4025C429.283 79.4675 432.201 79 435.335 79Z" fill="#54256C"/>
<path d="M487.222 79C490.14 79 492.915 79.4315 495.544 80.2946C498.21 81.1217 500.552 82.3983 502.57 84.1245C504.587 85.8147 506.19 87.9544 507.379 90.5436C508.568 93.0968 509.163 96.0996 509.163 99.5519C509.163 102.429 508.712 105.108 507.812 107.589C506.947 110.035 505.758 112.39 504.245 114.656C502.732 116.921 500.967 119.133 498.949 121.29C496.968 123.412 494.878 125.588 492.68 127.817L468.741 152.199C469.893 151.911 471.082 151.696 472.307 151.552C473.568 151.408 474.829 151.336 476.09 151.336H509.109C509.685 151.336 510.135 151.516 510.46 151.876C510.82 152.199 511 152.631 511 153.17V156.191H461.661V154.357C461.661 153.961 461.751 153.566 461.931 153.17C462.148 152.739 462.4 152.379 462.688 152.091L488.789 125.714C490.951 123.52 492.951 121.398 494.788 119.349C496.625 117.299 498.21 115.231 499.543 113.145C500.912 111.059 501.975 108.92 502.732 106.726C503.524 104.533 503.921 102.195 503.921 99.7137C503.921 96.9087 503.452 94.4813 502.516 92.4315C501.579 90.3458 500.318 88.6376 498.733 87.3071C497.184 85.9765 495.382 84.9876 493.329 84.3403C491.311 83.693 489.186 83.3693 486.952 83.3693C484.538 83.3693 482.305 83.7469 480.251 84.5021C478.234 85.2213 476.432 86.2462 474.847 87.5768C473.298 88.8714 472.001 90.4357 470.956 92.2697C469.947 94.0678 469.245 96.0456 468.849 98.2033C468.488 99.462 467.768 100.091 466.687 100.091C466.615 100.091 466.525 100.091 466.417 100.091C466.309 100.055 466.219 100.037 466.147 100.037L463.553 99.6058C463.985 96.3333 464.868 93.4205 466.201 90.8672C467.57 88.314 469.281 86.1563 471.334 84.3942C473.388 82.6321 475.766 81.3015 478.468 80.4025C481.17 79.4675 484.088 79 487.222 79Z" fill="#54256C"/>
</g>
<defs>
<clipPath id="clip0">
<rect width="511.25" height="157.22" fill="white"/>
</clipPath>
</defs>
</svg>
